<?xml version="1.0" standalone="no"?>
<!DOCTYPE svg PUBLIC "-//W3C//DTD SVG 20010904//EN"
 "http://www.w3.org/TR/2001/REC-SVG-20010904/DTD/svg10.dtd">
<svg version="1.0" xmlns="http://www.w3.org/2000/svg"
 width="152.000000pt" height="152.000000pt" viewBox="0 0 152.000000 152.000000"
 preserveAspectRatio="xMidYMid meet">
<metadata>
Created by potrace 1.11, written by Peter Selinger 2001-2013
</metadata>
<g transform="translate(0.000000,152.000000) scale(0.100000,-0.100000)"
fill="#000000" stroke="none">
<path d="M619 1505 c-225 -46 -429 -200 -534 -405 -128 -251 -97 -581 76 -800
120 -153 264 -244 454 -286 87 -19 272 -12 359 15 276 83 488 316 536 589 16
94 11 255 -12 337 -63 230 -233 421 -450 508 -133 54 -295 69 -429 42z m374
-45 c226 -76 399 -250 477 -480 31 -91 38 -266 16 -375 -42 -211 -198 -410
-396 -507 -104 -50 -188 -71 -305 -74 -209 -6 -392 65 -538 211 -229 228 -286
565 -142 851 100 198 278 343 480 388 39 8 79 18 90 20 11 3 66 3 123 1 80 -4
123 -11 195 -35z"/>
<path d="M615 1461 c-315 -80 -515 -306 -559 -633 -2 -21 -1 -38 3 -38 4 0 8
19 9 43 4 59 37 179 68 240 78 154 212 279 364 341 353 144 755 -15 911 -359
34 -76 59 -177 59 -244 0 -24 3 -41 7 -37 22 21 -13 187 -61 291 -41 89 -72
132 -148 208 -171 170 -430 244 -653 188z"/>
<path d="M630 1437 c-221 -45 -414 -206 -500 -420 -99 -248 -42 -541 145 -733
86 -88 229 -166 349 -189 215 -41 437 13 584 141 29 26 56 44 59 40 8 -8 -36
-48 -105 -94 -277 -186 -646 -154 -877 76 -79 78 -91 93 -136 177 -44 81 -76
194 -81 283 -1 33 -6 58 -9 56 -8 -5 -3 -59 12 -149 24 -139 105 -283 217
-385 309 -284 789 -242 1047 90 85 111 147 275 143 384 -1 37 -2 41 -5 16 -16
-165 -62 -288 -151 -400 -20 -25 -37 -47 -39 -49 -2 -2 -6 -1 -10 2 -3 4 5 20
19 35 141 150 203 427 142 633 -64 215 -230 389 -441 461 -101 35 -257 46
-363 25z m183 -4 c-24 -2 -62 -2 -85 0 -24 2 -5 4 42 4 47 0 66 -2 43 -4z
m209 -43 c113 -47 237 -137 223 -161 -5 -8 -4 -10 4 -5 21 13 95 -85 143 -192
55 -121 70 -264 42 -400 -40 -199 -173 -376 -351 -466 -61 -31 -84 -34 -33 -5
19 11 26 17 15 13 -11 -4 -51 -19 -90 -33 -62 -22 -86 -25 -200 -25 -147 0
-209 14 -314 70 -35 19 -65 33 -67 31 -10 -9 140 -79 208 -98 61 -16 65 -18
25 -14 -134 17 -303 124 -398 252 -189 254 -183 586 15 837 8 10 19 15 24 12
5 -3 15 1 22 9 24 29 31 15 8 -14 -26 -33 -41 -40 -31 -14 4 11 3 14 -6 9 -6
-4 -9 -16 -6 -26 3 -10 0 -22 -6 -26 -9 -5 -10 -2 -6 9 3 10 2 17 -3 17 -6 0
-10 -2 -10 -4 0 -2 -3 -12 -7 -22 -4 -12 -3 -15 5 -10 7 4 12 3 12 -3 0 -15
-18 -23 -22 -9 -8 24 -72 -112 -99 -212 -7 -25 -12 -94 -12 -155 1 -124 26
-218 84 -316 44 -76 100 -143 109 -130 4 7 15 2 30 -14 13 -14 18 -25 11 -25
-7 0 -9 -5 -5 -11 5 -8 8 -8 13 0 5 8 13 6 27 -5 18 -14 18 -15 -6 -8 -24 6
-24 6 -5 -9 11 -9 22 -11 23 -6 2 5 31 -6 65 -25 86 -48 184 -75 286 -81 l86
-4 -85 9 c-87 10 -245 54 -257 73 -7 11 0 10 90 -23 31 -11 83 -23 115 -26 67
-7 54 -7 122 -4 38 2 22 5 -55 10 -182 11 -295 60 -415 180 -87 87 -140 183
-162 294 -8 39 -17 66 -20 60 -10 -16 32 -156 64 -216 17 -31 46 -76 65 -98
20 -23 33 -43 30 -46 -2 -3 -21 14 -41 38 -70 81 -136 247 -136 340 0 21 -4
38 -8 38 -13 0 7 -128 30 -190 29 -81 32 -102 5 -45 -54 115 -66 283 -28 418
22 81 68 183 78 173 3 -3 -2 -17 -12 -32 -26 -40 -65 -162 -71 -224 -3 -30 -7
-60 -9 -67 -2 -7 0 -15 4 -17 4 -3 11 28 14 68 8 85 40 182 88 261 34 56 99
127 99 109 0 -6 -12 -21 -26 -35 -60 -56 -146 -240 -143 -306 1 -20 3 -22 5
-8 32 153 100 276 202 366 48 42 100 74 108 66 2 -2 -15 -16 -38 -32 -67 -43
-151 -136 -190 -212 -183 -348 12 -772 394 -856 122 -27 234 -17 357 32 29 12
56 19 59 17 7 -7 -82 -46 -143 -62 l-50 -14 45 5 c25 3 85 25 134 50 94 47
125 53 59 12 -57 -36 -161 -75 -221 -83 -28 -3 -52 -11 -52 -16 0 -5 8 -7 18
-5 9 3 42 11 72 17 30 7 90 30 134 51 43 22 81 38 83 35 3 -2 -9 -12 -27 -21
-18 -9 -30 -19 -27 -21 2 -3 22 5 42 18 21 12 33 24 26 26 -14 5 15 42 32 42
6 0 2 -10 -9 -21 -19 -22 -19 -22 3 -10 26 14 39 31 22 31 -7 0 -5 8 6 20 22
24 34 18 14 -7 -7 -10 4 -2 25 17 52 49 129 173 155 250 59 179 42 379 -46
536 -38 67 -36 49 2 -31 19 -39 41 -97 50 -130 21 -79 21 -242 0 -320 -18 -68
-63 -171 -71 -163 -3 3 5 24 17 47 55 106 75 297 44 426 -8 33 -31 94 -52 135
-48 95 -48 94 -34 86 6 -4 11 -3 11 3 0 5 -4 13 -10 16 -5 3 -10 1 -10 -6 0
-7 -11 -2 -25 11 -29 27 -32 42 -7 33 15 -6 15 -5 3 11 -9 11 -17 13 -21 6 -5
-7 -11 -6 -20 5 -9 11 -9 15 -1 15 7 0 9 5 5 12 -6 9 -9 9 -11 1 -5 -13 -33
-6 -33 8 0 4 8 5 18 2 15 -6 15 -5 3 11 -10 12 -16 13 -21 6 -5 -9 -13 -8 -29
1 -26 17 -28 33 -2 19 30 -15 38 -12 13 6 -12 8 -26 13 -31 10 -5 -4 -40 9
-78 28 -37 19 -95 41 -128 50 -71 17 -183 31 -173 21 3 -3 30 -9 60 -12 122
-11 247 -59 338 -131 49 -38 126 -127 148 -168 24 -46 6 -35 -26 15 -75 115
-224 220 -367 256 -69 18 -202 20 -277 4 -72 -15 -193 -73 -251 -122 -26 -22
-51 -37 -54 -33 -4 3 -4 7 -2 9 2 2 24 19 49 39 71 57 204 115 300 131 l25 4
-26 2 c-35 1 -173 -44 -226 -75 -45 -26 -58 -30 -48 -14 3 6 2 10 -4 10 -5 0
-13 -4 -16 -10 -3 -5 -1 -10 6 -10 8 0 8 -4 -1 -15 -7 -8 -17 -15 -22 -15 -6
0 -5 7 2 15 7 8 8 15 2 15 -16 0 -35 -27 -22 -32 7 -2 3 -11 -9 -22 -12 -11
-21 -14 -21 -8 0 6 4 13 10 17 5 3 7 11 4 18 -9 24 183 130 256 142 24 4 17 0
-21 -13 -53 -18 -162 -72 -156 -78 1 -2 29 10 62 26 65 32 149 59 187 61 19 1
18 2 -6 8 -17 3 42 5 130 5 156 -2 163 -3 236 -34z m-113 -35 c97 -25 189 -72
264 -135 77 -64 166 -218 193 -335 13 -57 14 -58 9 -12 -3 26 -16 77 -31 113
-30 75 -25 101 6 30 67 -157 65 -359 -5 -514 -13 -29 -22 -58 -19 -65 5 -15
-72 -127 -88 -127 -6 0 -4 8 5 18 24 26 21 39 -3 17 -31 -28 -24 -8 13 38 19
23 43 58 55 77 28 47 72 182 71 217 0 17 -6 5 -14 -32 -29 -127 -98 -250 -188
-331 -52 -46 -105 -79 -114 -71 -2 3 6 11 19 18 52 27 134 108 179 176 44 68
90 177 89 212 -1 9 -13 -20 -28 -64 -81 -237 -281 -388 -527 -400 -254 -12
-495 152 -577 393 -26 73 -34 222 -19 304 21 109 74 203 160 288 86 85 165
131 273 161 53 14 61 18 29 14 -25 -3 -73 -17 -109 -31 -75 -30 -96 -25 -26 6
104 48 274 63 383 35z m-604 -115 c-16 -16 -31 -28 -33 -25 -7 7 39 55 52 55
5 0 -3 -13 -19 -30z m-89 -802 c9 -18 32 -52 51 -75 19 -24 30 -43 26 -43 -15
0 -103 124 -103 144 0 15 11 3 26 -26z m142 -133 c13 -14 46 -39 74 -57 27
-18 45 -34 39 -36 -16 -5 -151 94 -151 112 0 13 16 5 38 -19z m862 20 c0 -9
-64 -64 -74 -65 -6 0 5 16 24 35 31 32 50 43 50 30z m-221 -195 c-37 -21 -149
-40 -234 -38 l-90 1 115 8 c63 4 135 14 160 22 53 18 72 20 49 7z"/>
<path d="M930 1400 c41 -11 105 -36 142 -55 74 -37 89 -40 33 -5 -52 32 -150
68 -203 75 -38 4 -32 1 28 -15z"/>
<path d="M715 1400 c-3 -5 1 -10 9 -10 8 0 18 5 21 10 3 6 -1 10 -9 10 -8 0
-18 -4 -21 -10z"/>
<path d="M1285 1170 c3 -5 8 -10 11 -10 2 0 4 5 4 10 0 6 -5 10 -11 10 -5 0
-7 -4 -4 -10z"/>
<path d="M150 768 c0 -34 3 -59 6 -55 9 9 10 117 2 117 -5 0 -8 -28 -8 -62z"/>
<path d="M300 291 c0 -5 7 -12 16 -15 14 -5 15 -4 4 9 -14 17 -20 19 -20 6z"/>
<path d="M710 1350 c0 -5 5 -10 10 -10 6 0 10 5 10 10 0 6 -4 10 -10 10 -5 0
-10 -4 -10 -10z"/>
<path d="M740 1356 c3 -3 35 -8 70 -11 106 -9 207 -44 283 -97 46 -33 23 -31
-30 2 -127 79 -315 102 -459 56 -97 -31 -180 -84 -250 -159 -256 -274 -173
-728 161 -887 44 -21 102 -43 129 -49 61 -15 173 -15 246 -1 192 36 387 225
430 416 15 64 24 160 15 152 -4 -4 -9 -29 -10 -57 -14 -233 -206 -453 -435
-501 -84 -17 -207 -11 -286 15 -105 33 -150 60 -226 136 -213 213 -221 546
-20 769 27 30 53 52 58 47 4 -4 -2 -14 -14 -23 -56 -39 -144 -188 -156 -264
-4 -27 -2 -24 12 15 33 97 66 151 136 221 114 115 242 165 399 158 353 -15
594 -368 478 -701 -127 -366 -585 -481 -863 -216 -118 114 -168 228 -165 385
1 54 -1 98 -5 98 -8 0 -11 -65 -8 -145 6 -164 137 -358 293 -434 121 -57 236
-73 358 -47 246 53 429 275 429 523 0 84 -22 186 -53 248 -11 22 -42 68 -68
103 -27 34 -45 62 -40 62 14 0 90 -98 116 -150 26 -51 54 -140 57 -182 1 -16
6 -28 10 -28 9 0 1 49 -19 114 -26 87 -73 167 -134 229 -32 33 -56 63 -54 66
10 9 107 -94 139 -150 64 -107 79 -162 80 -286 1 -62 4 -113 9 -113 7 0 10 59
8 130 -10 242 -187 462 -431 535 -47 15 -199 31 -190 21z m225 -71 c90 -36
186 -98 172 -111 -3 -3 -23 8 -44 25 -45 36 -152 85 -208 96 -151 28 -296 1
-413 -78 -24 -16 -46 -27 -48 -24 -9 8 80 65 137 88 82 32 125 38 234 35 81
-3 114 -9 170 -31z"/>
<path d="M637 1266 c-318 -92 -474 -439 -330 -734 57 -117 191 -228 322 -266
71 -21 211 -21 282 0 128 37 259 146 320 265 29 59 63 179 50 179 -4 0 -13
-28 -20 -62 -33 -163 -167 -309 -336 -365 -93 -31 -223 -31 -312 0 -38 14 -88
36 -111 50 -52 33 -112 86 -112 99 0 5 21 -9 48 -33 55 -49 172 -108 228 -115
33 -4 30 -2 -15 11 -215 61 -361 247 -361 460 1 149 39 244 140 345 75 75 147
115 241 135 159 34 319 -14 435 -130 265 -262 146 -709 -215 -808 -56 -15 -59
-17 -21 -12 57 7 174 63 221 107 110 102 170 234 170 373 0 137 -55 262 -160
361 -25 24 -41 44 -34 44 17 0 111 -97 138 -145 38 -65 65 -153 69 -228 2 -38
7 -72 11 -75 4 -4 4 28 1 71 -11 135 -57 238 -144 326 -71 72 -106 96 -185
128 -78 31 -244 41 -320 19z m257 -11 c66 -17 166 -64 166 -77 0 -11 2 -12
-67 24 -136 72 -303 72 -441 2 -201 -102 -307 -317 -266 -540 7 -41 50 -137
85 -191 11 -18 17 -33 12 -33 -14 0 -75 107 -96 169 -40 118 -27 277 31 385
35 66 47 81 108 141 117 114 305 162 468 120z"/>
<path d="M685 1225 c-5 -2 -34 -11 -64 -20 -111 -34 -211 -124 -267 -240 -19
-38 -34 -79 -34 -90 1 -11 9 4 20 34 11 30 23 57 26 60 8 7 1 -19 -20 -74 -8
-22 -15 -58 -15 -80 1 -34 3 -30 14 27 25 124 91 221 196 288 48 31 128 60
167 60 12 0 22 5 22 10 0 18 -104 -11 -169 -46 -52 -29 -68 -24 -20 6 147 90
377 74 508 -36 45 -37 30 -43 -16 -5 -49 39 -117 69 -173 76 -37 4 -33 2 21
-13 72 -20 122 -48 178 -97 26 -22 33 -25 28 -11 -7 16 -5 17 9 5 11 -9 12
-15 5 -17 -8 -3 -2 -17 14 -38 14 -19 38 -60 53 -92 23 -50 26 -70 27 -167 0
-103 -2 -114 -32 -178 -41 -86 -126 -173 -208 -211 -171 -81 -355 -49 -489 86
-81 82 -125 178 -126 276 0 17 -4 32 -9 32 -6 0 -12 19 -14 43 -2 23 -4 2 -5
-46 -5 -227 142 -411 370 -463 13 -3 55 -5 95 -5 177 1 334 105 411 271 67
143 53 321 -34 451 -89 135 -230 210 -388 208 -39 0 -75 -2 -81 -4z m-211
-133 c-22 -20 -55 -57 -72 -81 -18 -24 -32 -39 -32 -34 0 22 115 153 135 153
5 0 -8 -17 -31 -38z m700 -127 c14 -28 27 -64 30 -80 4 -17 -3 -5 -15 25 -13
30 -35 74 -51 98 -15 24 -28 46 -28 50 1 14 41 -44 64 -93z m46 -199 c0 -131
-49 -244 -143 -333 -97 -92 -203 -129 -342 -120 -161 10 -299 104 -371 253
-24 50 -35 90 -39 135 l-4 64 9 -55 c27 -167 114 -282 263 -350 290 -131 629
97 615 414 -2 41 0 72 5 69 4 -2 7 -37 7 -77z"/>
<path d="M740 1202 c0 -10 36 -9 46 1 4 4 -5 7 -19 7 -15 0 -27 -4 -27 -8z"/>
<path d="M646 1163 c-167 -51 -296 -222 -296 -393 0 -51 22 -146 47 -197 23
-49 95 -126 151 -162 138 -88 331 -82 465 15 242 176 227 539 -29 697 -90 55
-234 73 -338 40z m295 -31 c264 -129 316 -473 101 -671 -20 -18 -66 -48 -102
-65 -60 -29 -73 -31 -170 -31 -97 0 -110 2 -172 32 -251 119 -315 449 -124
646 90 92 177 126 312 123 80 -2 100 -6 155 -34z"/>
<path d="M690 1149 c-66 -13 -148 -58 -200 -110 -151 -151 -148 -402 6 -556
47 -47 126 -89 185 -98 22 -4 14 1 -24 15 -113 40 -188 107 -236 209 -23 49
-26 69 -26 156 0 88 3 107 27 157 39 84 104 149 190 189 66 30 82 33 163 33
54 0 78 3 60 7 -41 9 -92 8 -145 -2z"/>
<path d="M927 1111 c83 -39 143 -97 184 -178 32 -63 34 -73 34 -168 0 -93 -2
-105 -33 -167 -63 -128 -184 -207 -324 -211 -37 -1 -68 -6 -68 -10 0 -13 98
-6 155 11 76 22 118 46 171 100 156 156 154 396 -3 555 -43 44 -135 98 -165
97 -7 -1 15 -14 49 -29z"/>
<path d="M674 1121 c-100 -25 -206 -120 -246 -219 -33 -85 -32 -207 4 -284 48
-103 153 -190 257 -213 167 -36 352 57 415 210 22 51 36 115 26 115 -4 0 -10
-17 -12 -37 -13 -97 -99 -206 -197 -251 -109 -51 -251 -39 -355 29 -47 31
-106 100 -106 123 0 6 10 -2 22 -19 74 -101 167 -148 293 -149 66 0 90 5 135
26 68 32 126 88 165 159 27 49 30 62 30 149 0 113 -19 163 -89 238 -105 112
-256 139 -400 71 -24 -11 -53 -29 -65 -40 -12 -12 -25 -19 -27 -16 -9 9 40 47
96 75 48 24 67 27 150 27 85 0 101 -3 153 -30 95 -48 177 -149 192 -237 4 -21
10 -40 15 -43 4 -3 4 13 -1 35 -25 110 -100 205 -204 256 -49 24 -74 29 -140
31 -44 1 -94 -2 -111 -6z m229 -54 c74 -35 128 -86 162 -153 27 -52 30 -69 30
-149 0 -80 -3 -97 -29 -148 -98 -192 -356 -244 -514 -102 -59 53 -101 128
-109 194 -3 28 -9 48 -13 46 -7 -4 2 -54 26 -135 5 -19 4 -22 -5 -14 -16 14
-41 109 -41 154 0 82 69 250 102 250 6 0 3 -10 -6 -22 -48 -68 -91 -184 -76
-208 4 -6 10 9 13 35 30 213 266 342 460 252z"/>
<path d="M651 1058 c-67 -25 -144 -99 -174 -166 -33 -74 -31 -189 6 -264 30
-61 94 -125 155 -154 21 -10 69 -19 112 -22 93 -5 166 20 233 78 46 41 98 134
96 173 -1 17 -3 15 -8 -8 -15 -60 -83 -166 -98 -151 -4 3 5 19 19 34 57 61 82
153 63 242 -15 73 -34 108 -89 158 -70 65 -159 92 -241 74 -36 -8 -32 -9 35
-9 92 0 149 -23 213 -86 69 -69 95 -177 67 -279 -16 -56 -79 -129 -141 -163
-87 -47 -208 -40 -291 17 -16 11 -28 15 -28 10 0 -5 26 -22 58 -38 94 -48 232
-37 305 24 9 8 20 12 24 9 10 -11 -26 -34 -87 -58 -79 -30 -188 -24 -256 16
-49 29 -74 49 -74 59 0 3 8 2 18 -1 12 -5 9 2 -10 25 -35 42 -68 116 -68 154
0 16 -4 27 -9 24 -19 -12 20 -127 57 -169 8 -9 12 -20 9 -24 -9 -8 -30 20 -59
77 -32 64 -32 186 0 250 28 55 60 95 69 86 4 -3 -3 -16 -14 -29 -11 -12 -28
-37 -37 -55 -19 -37 -37 -122 -26 -122 4 0 10 20 14 46 6 49 42 117 78 151 13
12 43 33 68 47 25 14 38 26 29 26 -9 0 -35 -14 -58 -31 -51 -36 -65 -33 -21 5
63 52 193 71 283 40 26 -9 70 -36 97 -61 67 -60 101 -128 103 -204 1 -33 6
-59 11 -59 17 0 -4 121 -31 176 -70 144 -248 211 -402 152z"/>
<path d="M720 1030 c-116 -21 -207 -121 -217 -240 -10 -111 54 -223 154 -270
58 -28 158 -30 215 -6 128 55 197 204 154 333 -41 124 -178 206 -306 183z m75
-216 c28 -11 38 -53 20 -81 -22 -33 -73 -29 -94 8 -13 24 -13 29 2 53 17 26
40 32 72 20z"/>
<path d="M1128 765 c2 -14 6 -25 8 -25 2 0 4 11 4 25 0 14 -4 25 -9 25 -4 0
-6 -11 -3 -25z"/>
<path d="M1378 755 c-2 -25 0 -45 4 -45 5 0 8 20 8 45 0 25 -2 45 -4 45 -2 0
-6 -20 -8 -45z"/>
<path d="M1286 400 c-14 -22 -23 -40 -19 -40 10 0 56 70 50 76 -2 2 -16 -14
-31 -36z"/>
<path d="M710 278 c0 -5 25 -8 55 -8 30 0 55 3 55 8 0 4 -25 7 -55 7 -30 0
-55 -3 -55 -7z"/>
</g>
</svg>
